<?xml version="1.0" encoding="utf-8"?>
<!-- Generator: Adobe Illustrator 16.0.0, SVG Export Plug-In . SVG Version: 6.00 Build 0)  -->
<!DOCTYPE svg PUBLIC "-//W3C//DTD SVG 1.1//EN" "http://www.w3.org/Graphics/SVG/1.1/DTD/svg11.dtd">
<svg version="1.1" id="Layer_1" xmlns="http://www.w3.org/2000/svg" xmlns:xlink="http://www.w3.org/1999/xlink" x="0px" y="0px"
	 width="400px" height="400px" viewBox="0 0 400 400" enable-background="new 0 0 400 400" xml:space="preserve">
<g>
	<path fill="#2F2483" d="M200,0C89.544,0,0,89.542,0,200c0,110.458,89.544,200,200,200c110.458,0,200-89.542,200-200
		C400,89.542,310.458,0,200,0"/>
	<rect x="76.677" y="42.846" fill="#009EE3" width="247.026" height="227.408"/>
	
		<rect x="76.677" y="42.846" fill="none" stroke="#FFFFFF" stroke-width="0.5" stroke-miterlimit="22.9256" width="247.026" height="227.408"/>
	<path fill="#FFFFFF" d="M297.506,152.504c-17.555-1.071-122.394-37.542-138.097,30.974c-8.408,36.691,12.79,56.716,49.124,54.422
		l0.164-4.455l-24.714-0.341l3.229-72.872l118.621-0.118c-5.233,47.726-5.546,100.109-7.626,148.488
		c-34.572,5.964-66.388,11.646-102.315,10.762c-46.276-1.138-75.438-7.87-101.881-29.416
		c-26.444-21.546-40.231-49.832-40.231-87.245c0-43.718,12.949-78.466,42.907-102.826c30.026-24.413,65.397-35.222,119.416-35.222
		c28.05,0,53.762,4.376,81.063,8.423L297.506,152.504z"/>
	<path fill="#2F2483" d="M279.362,131.598c-59.594-9.543-126.032-16.197-138.222,53.028c-10.362,58.848,44.4,82.136,82.69,64.851
		l2.255-33.405l-24.653-0.088l1.738-38.519l82.438,0.417c-3.429,47.723-2.939,68.173-5.019,116.554
		c-34.57,5.962-59.523,8.148-92.867,8.154c-39.941,0.003-118.42-15.859-118.009-106.991c0.112-24.921,6.165-50.131,30.065-75.399
		c47.071-49.765,125.479-40.05,179.598-32.68L279.362,131.598z"/>
	<path fill="none" stroke="#000000" stroke-width="0.216" stroke-miterlimit="22.9256" d="M279.362,131.598
		c-59.594-9.543-126.032-16.197-138.222,53.028c-10.362,58.848,44.4,82.136,82.69,64.851l2.255-33.405l-24.653-0.088l1.738-38.519
		l82.438,0.417c-3.429,47.723-2.939,68.173-5.019,116.554c-34.57,5.962-59.523,8.148-92.867,8.154
		c-39.941,0.003-118.42-15.859-118.009-106.991c0.112-24.921,6.165-50.131,30.065-75.399c47.071-49.765,125.479-40.05,179.598-32.68
		L279.362,131.598z"/>
</g>
</svg>
