<svg id="Group_195" data-name="Group 195" xmlns="http://www.w3.org/2000/svg" xmlns:xlink="http://www.w3.org/1999/xlink" width="395.217" height="71.279" viewBox="0 0 395.217 71.279">
  <defs>
    <clipPath id="clip-path">
      <rect id="Rectangle_72" data-name="Rectangle 72" width="395.217" height="71.279" fill="none"/>
    </clipPath>
  </defs>
  <path id="Path_101" data-name="Path 101" d="M348.592,13.938,350.4,3.255h2.739l2.162,5.7,2.29-5.7h2.771l1.6,10.683h-2.772l-.783-6.15-2.58,6.15h-1.1l-2.468-6.15-.912,6.15Z" transform="translate(-151.305 -1.413)" fill="#002f76"/>
  <g id="Group_57" data-name="Group 57" transform="translate(0 0)">
    <g id="Group_56" data-name="Group 56" clip-path="url(#clip-path)">
      <path id="Path_102" data-name="Path 102" d="M380.232,9.3h2.562v7.159h-2.562v-.784a2.677,2.677,0,0,1-2.227,1.026,3.428,3.428,0,0,1-2.577-1.137,3.615,3.615,0,0,1-1.027-2.627,3.964,3.964,0,0,1,1.106-2.867,3.686,3.686,0,0,1,2.579-1.009,2.833,2.833,0,0,1,2.146.929Zm-2.691,2.4a1.678,1.678,0,0,0-.512,1.169,1.646,1.646,0,0,0,.5,1.169,1.792,1.792,0,0,0,1.153.48,1.647,1.647,0,0,0,1.153-.5,1.556,1.556,0,0,0,.48-1.153,1.583,1.583,0,0,0-.5-1.169,1.625,1.625,0,0,0-2.275,0" transform="translate(-162.508 -3.931)" fill="#002f76"/>
      <path id="Path_103" data-name="Path 103" d="M392.468,14.086a3.655,3.655,0,0,0,1.026.529,3.325,3.325,0,0,0,.992.176,1.1,1.1,0,0,0,.658-.192.411.411,0,0,0,.127-.337.377.377,0,0,0-.127-.32,1.591,1.591,0,0,0-.674-.256l-.671-.16a2.3,2.3,0,0,1-1.249-.624,1.731,1.731,0,0,1-.466-1.234,2.556,2.556,0,0,1,.674-1.746,3.614,3.614,0,0,1,2.561-.865,5.907,5.907,0,0,1,2.29.465l-.864,1.633A3.546,3.546,0,0,0,395.4,10.8a1.081,1.081,0,0,0-.593.144.384.384,0,0,0-.225.352.417.417,0,0,0,.3.4c.241.1.448.1.849.208l.466.128a3.055,3.055,0,0,1,1.057.561,2.029,2.029,0,0,1,.544,1.426,2.393,2.393,0,0,1-.722,1.778,3.721,3.721,0,0,1-2.642.9,5.278,5.278,0,0,1-2.882-.833Z" transform="translate(-169.953 -3.931)" fill="#002f76"/>
      <path id="Path_104" data-name="Path 104" d="M410.232,9.3h2.562v7.159h-2.562v-.784a2.677,2.677,0,0,1-2.227,1.026,3.428,3.428,0,0,1-2.577-1.137,3.614,3.614,0,0,1-1.027-2.627,3.964,3.964,0,0,1,1.106-2.867,3.686,3.686,0,0,1,2.579-1.009,2.833,2.833,0,0,1,2.146.929Zm-2.691,2.4a1.678,1.678,0,0,0-.512,1.169,1.646,1.646,0,0,0,.5,1.169,1.792,1.792,0,0,0,1.153.48,1.647,1.647,0,0,0,1.153-.5,1.556,1.556,0,0,0,.48-1.153,1.582,1.582,0,0,0-.5-1.169,1.625,1.625,0,0,0-2.275,0" transform="translate(-175.529 -3.931)" fill="#002f76"/>
      <path id="Path_105" data-name="Path 105" d="M422.347,9.4h2.562v1.169a2.311,2.311,0,0,1,1.01-.993,2.79,2.79,0,0,1,1.328-.289c.065,0,.177.017.512.032v2.418a2.247,2.247,0,0,0-1.1-.256,1.676,1.676,0,0,0-1.168.384,2.159,2.159,0,0,0-.578,1.634v3.059h-2.562Z" transform="translate(-183.318 -4.029)" fill="#002f76"/>
      <path id="Path_106" data-name="Path 106" d="M436.534,15.663,433.075,9.48h2.978l1.907,3.669,1.857-3.669h2.931L437,20.308h-2.866Z" transform="translate(-187.975 -4.115)" fill="#002f76"/>
      <path id="Path_107" data-name="Path 107" d="M454.288,1.5V8.6l2.417-2.578h3.477l-3.38,3.3,3.653,3.86H456.9l-2.609-2.931v2.931h-2.562V1.5Z" transform="translate(-196.07 -0.652)" fill="#002f76"/>
      <path id="Path_108" data-name="Path 108" d="M475.154,15.512a4.9,4.9,0,0,1-6.391,0,3.694,3.694,0,0,1,0-5.268,4.478,4.478,0,0,1,3.189-1.185,4.523,4.523,0,0,1,3.2,1.185,3.694,3.694,0,0,1,0,5.268m-4.34-3.811a1.586,1.586,0,0,0,0,2.306,1.6,1.6,0,0,0,2.29,0,1.578,1.578,0,0,0,.5-1.136,1.738,1.738,0,0,0-.5-1.169,1.643,1.643,0,0,0-2.29,0" transform="translate(-202.986 -3.932)" fill="#002f76"/>
      <path id="Path_109" data-name="Path 109" d="M486.49,9.482l1.713,3.667,1.745-3.667H492.8l-3.73,7.159h-1.746l-3.7-7.159Z" transform="translate(-209.915 -4.115)" fill="#002f76"/>
      <path id="Path_110" data-name="Path 110" d="M508.1,15.512a4.9,4.9,0,0,1-6.391,0,3.693,3.693,0,0,1,0-5.268A4.475,4.475,0,0,1,504.9,9.059a4.526,4.526,0,0,1,3.2,1.185,3.7,3.7,0,0,1,0,5.268M503.759,11.7a1.587,1.587,0,0,0,0,2.306,1.6,1.6,0,0,0,2.29,0,1.578,1.578,0,0,0,.5-1.136,1.738,1.738,0,0,0-.5-1.169,1.644,1.644,0,0,0-2.29,0" transform="translate(-217.285 -3.932)" fill="#002f76"/>
      <path id="Path_111" data-name="Path 111" d="M532.835,9.322v6.711A3.82,3.82,0,0,1,531.856,19a4.267,4.267,0,0,1-3.154,1.153,4.39,4.39,0,0,1-3.348-1.265,2.606,2.606,0,0,1-.785-1.489h2.851a1.1,1.1,0,0,0,1.2.736,1.557,1.557,0,0,0,1.138-.4,1.719,1.719,0,0,0,.513-1.33v-.72a2.724,2.724,0,0,1-2.146.946,3.562,3.562,0,0,1-2.642-1.01,3.781,3.781,0,0,1-.993-2.61,4.128,4.128,0,0,1,1.057-2.8,3.6,3.6,0,0,1,2.595-1.089,2.8,2.8,0,0,1,2.13.945V9.322Zm-5.221,2.4a1.6,1.6,0,0,0,0,2.322,1.618,1.618,0,0,0,1.153.465,1.644,1.644,0,0,0,1.634-1.633,1.838,1.838,0,0,0-.513-1.169,1.627,1.627,0,0,0-1.138-.465,1.525,1.525,0,0,0-1.137.48" transform="translate(-227.653 -3.956)" fill="#002f76"/>
      <path id="Path_112" data-name="Path 112" d="M544.252,15.663,540.793,9.48h2.978l1.907,3.669,1.857-3.669h2.93l-5.75,10.828H541.85Z" transform="translate(-234.729 -4.115)" fill="#002f76"/>
      <path id="Path_113" data-name="Path 113" d="M559.444,9.383h2.562v.865a2.754,2.754,0,0,1,2.146-.993,2.924,2.924,0,0,1,1.378.32,2.241,2.241,0,0,1,.993,1.025,2.517,2.517,0,0,1,.976-.993,2.916,2.916,0,0,1,1.489-.353,2.844,2.844,0,0,1,1.986.657,2.626,2.626,0,0,1,.673,1.97v4.66h-2.563V13a2.126,2.126,0,0,0-.367-1.538.937.937,0,0,0-.672-.24,1.039,1.039,0,0,0-.753.288,1.831,1.831,0,0,0-.465,1.362v3.667h-2.562V13a2.291,2.291,0,0,0-.337-1.538,1,1,0,0,0-.77-.288.9.9,0,0,0-.7.256A2.115,2.115,0,0,0,562.005,13v3.539h-2.562Z" transform="translate(-242.824 -4.017)" fill="#002f76"/>
      <path id="Path_114" data-name="Path 114" d="M584.151,9.359h2.562v.9A2.7,2.7,0,0,1,588.987,9.2a2.894,2.894,0,0,1,2.114.769,2.469,2.469,0,0,1,.673,2v4.548h-2.563V12.9a2.052,2.052,0,0,0-.32-1.393,1.073,1.073,0,0,0-.816-.3,1.405,1.405,0,0,0-.945.336,1.648,1.648,0,0,0-.418,1.138v3.843h-2.562Z" transform="translate(-253.548 -3.993)" fill="#002f76"/>
      <path id="Path_115" data-name="Path 115" d="M606.027,6.019h2.563v7.158h-2.563v-.785a2.673,2.673,0,0,1-2.225,1.026,3.43,3.43,0,0,1-2.579-1.136A3.614,3.614,0,0,1,600.2,9.654,3.962,3.962,0,0,1,601.3,6.787a3.687,3.687,0,0,1,2.578-1.009,2.832,2.832,0,0,1,2.146.929Zm-2.691,2.4a1.675,1.675,0,0,0-.512,1.169,1.655,1.655,0,0,0,.5,1.17,1.8,1.8,0,0,0,1.153.48,1.641,1.641,0,0,0,1.152-.5,1.547,1.547,0,0,0,.482-1.153,1.585,1.585,0,0,0-.5-1.169,1.627,1.627,0,0,0-2.275,0m3.779-5.749L604.651,4.85l-1.186-.881L605.5,1.5Z" transform="translate(-260.514 -0.652)" fill="#002f76"/>
      <path id="Path_116" data-name="Path 116" d="M621.443,14.543h2.994v2.1h-7.287l3.38-5.061h-2.883v-2.1h7.142Z" transform="translate(-267.872 -4.116)" fill="#002f76"/>
      <path id="Path_117" data-name="Path 117" d="M633.933,1.671a1.441,1.441,0,1,1-1.441,1.441,1.436,1.436,0,0,1,1.441-1.441m1.282,11.58h-2.562V6.092h2.562Z" transform="translate(-274.531 -0.725)" fill="#002f76"/>
      <path id="Path_118" data-name="Path 118" d="M642.95,9.482v4a1.372,1.372,0,0,0,.385,1.041,1.324,1.324,0,0,0,.9.272,1.2,1.2,0,0,0,.912-.3,1.328,1.328,0,0,0,.368-1.009v-4h2.564v4.469a2.457,2.457,0,0,1-.689,1.921,4.086,4.086,0,0,1-3.092,1.01,4.267,4.267,0,0,1-3.235-1.026,2.57,2.57,0,0,1-.672-1.906V9.482Z" transform="translate(-277.958 -4.116)" fill="#002f76"/>
      <path id="Path_119" data-name="Path 119" d="M657.087,9.383h2.562v.865a2.754,2.754,0,0,1,2.146-.993,2.92,2.92,0,0,1,1.378.32,2.245,2.245,0,0,1,.993,1.025,2.513,2.513,0,0,1,.976-.993,2.914,2.914,0,0,1,1.489-.353,2.846,2.846,0,0,1,1.986.657,2.629,2.629,0,0,1,.673,1.97v4.66h-2.564V13a2.127,2.127,0,0,0-.367-1.538.939.939,0,0,0-.674-.24,1.041,1.041,0,0,0-.752.288,1.833,1.833,0,0,0-.464,1.362v3.667h-2.561V13a2.291,2.291,0,0,0-.337-1.538,1,1,0,0,0-.77-.288.9.9,0,0,0-.7.256A2.115,2.115,0,0,0,659.648,13v3.539h-2.562Z" transform="translate(-285.206 -4.017)" fill="#002f76"/>
      <path id="Path_120" data-name="Path 120" d="M349.777,44.514a3.744,3.744,0,0,0,2.449,1.089,1.41,1.41,0,0,0,1.074-.368.957.957,0,0,0,.271-.673.837.837,0,0,0-.3-.64,3.865,3.865,0,0,0-1.379-.561l-.72-.224a3.492,3.492,0,0,1-1.538-.865,2.686,2.686,0,0,1-.608-1.89A3.488,3.488,0,0,1,350,37.8a3.766,3.766,0,0,1,2.738-1.009,7.5,7.5,0,0,1,3.3.865l-1.1,2.161a2.82,2.82,0,0,0-1.826-.72,1.333,1.333,0,0,0-.913.32.792.792,0,0,0-.272.577.714.714,0,0,0,.144.48,1.75,1.75,0,0,0,.929.481l.849.256a4.074,4.074,0,0,1,1.937,1.057,2.52,2.52,0,0,1,.689,1.906,3.619,3.619,0,0,1-1.008,2.691,4.139,4.139,0,0,1-3.155,1.089,5.709,5.709,0,0,1-2.1-.353,7.408,7.408,0,0,1-1.618-.849Z" transform="translate(-151.305 -15.971)" fill="#a6231e"/>
      <path id="Path_121" data-name="Path 121" d="M367.594,43.737V48.8h-2.562v-5.06h-.818v-2.1h.818V39.286h2.562v2.354h1.457v2.1Z" transform="translate(-158.086 -17.052)" fill="#a6231e"/>
      <path id="Path_122" data-name="Path 122" d="M373.439,36.274l1.09-1.233,2.05,1.569,2.035-1.569,1.138,1.233-3.172,2.355Zm.578,3.524h2.562v1.169a2.316,2.316,0,0,1,1.01-.993,2.793,2.793,0,0,1,1.329-.289c.063,0,.177.017.511.032v2.418a2.254,2.254,0,0,0-1.1-.256,1.675,1.675,0,0,0-1.168.384,2.159,2.159,0,0,0-.578,1.634v3.06h-2.562Z" transform="translate(-162.09 -15.209)" fill="#a6231e"/>
      <path id="Path_123" data-name="Path 123" d="M393.392,47.337h-5.333a1.808,1.808,0,0,0,.448,1.2,1.442,1.442,0,0,0,1.057.352,2.017,2.017,0,0,0,.832-.192,1.19,1.19,0,0,0,.449-.48h2.449a3.216,3.216,0,0,1-.864,1.474,3.893,3.893,0,0,1-2.915.993,4.062,4.062,0,0,1-2.963-1.089,3.75,3.75,0,0,1-1.058-2.706,3.823,3.823,0,0,1,1.074-2.77,4.031,4.031,0,0,1,2.931-1.042,3.919,3.919,0,0,1,2.754.977,4,4,0,0,1,1.138,3.011Zm-2.354-1.473a1.718,1.718,0,0,0-.416-.769,1.49,1.49,0,0,0-1.057-.385,1.375,1.375,0,0,0-1.04.385,1.461,1.461,0,0,0-.384.769Z" transform="translate(-167.323 -18.697)" fill="#a6231e"/>
      <path id="Path_124" data-name="Path 124" d="M409.937,47.14h-2.563v-.784a2.627,2.627,0,0,1-2.161,1.024,3.423,3.423,0,0,1-2.515-.993,3.945,3.945,0,0,1-1.154-2.85,3.893,3.893,0,0,1,1.17-2.834,3.657,3.657,0,0,1,2.53-.962,2.83,2.83,0,0,1,2.13.929V35.464h2.563Zm-3.027-2.37a1.715,1.715,0,0,0,.545-1.217,1.878,1.878,0,0,0-.481-1.153,1.643,1.643,0,0,0-2.306-.016,1.755,1.755,0,0,0-.5,1.217,1.618,1.618,0,0,0,.5,1.121,1.59,1.59,0,0,0,1.137.48,1.748,1.748,0,0,0,1.105-.432" transform="translate(-174.289 -15.393)" fill="#a6231e"/>
      <path id="Path_125" data-name="Path 125" d="M419.488,43.322h2.562v.9a2.7,2.7,0,0,1,2.275-1.057,2.892,2.892,0,0,1,2.113.769,2.469,2.469,0,0,1,.674,2v4.548h-2.564v-3.62a2.049,2.049,0,0,0-.32-1.393,1.071,1.071,0,0,0-.816-.3,1.405,1.405,0,0,0-.945.336,1.651,1.651,0,0,0-.417,1.138v3.843h-2.562Z" transform="translate(-182.077 -18.734)" fill="#a6231e"/>
      <path id="Path_126" data-name="Path 126" d="M438.551,47.139H435.99V39.981h2.561ZM439.8,36.634l-2.467,2.178-1.186-.881,2.036-2.466Z" transform="translate(-189.24 -15.393)" fill="#a6231e"/>
      <path id="Path_127" data-name="Path 127" d="M453.5,48.506h2.994v2.1h-7.286l3.38-5.061H449.7v-2.1h7.143Z" transform="translate(-194.976 -18.858)" fill="#a6231e"/>
      <path id="Path_128" data-name="Path 128" d="M472.712,47.14h-2.563v-.784a2.626,2.626,0,0,1-2.162,1.024,3.422,3.422,0,0,1-2.514-.993,3.945,3.945,0,0,1-1.154-2.85,3.893,3.893,0,0,1,1.17-2.834,3.656,3.656,0,0,1,2.53-.962,2.83,2.83,0,0,1,2.13.929V35.464h2.563Zm-3.027-2.37a1.715,1.715,0,0,0,.545-1.217,1.878,1.878,0,0,0-.481-1.153,1.643,1.643,0,0,0-2.306-.016,1.755,1.755,0,0,0-.5,1.217,1.618,1.618,0,0,0,.5,1.121,1.589,1.589,0,0,0,1.137.48,1.748,1.748,0,0,0,1.105-.432" transform="translate(-201.536 -15.393)" fill="#a6231e"/>
      <path id="Path_129" data-name="Path 129" d="M482.263,43.359h2.563v1.169a2.3,2.3,0,0,1,1.009-.993,2.791,2.791,0,0,1,1.328-.289c.065,0,.177.017.512.032V45.7a2.253,2.253,0,0,0-1.105-.256,1.678,1.678,0,0,0-1.168.384,2.161,2.161,0,0,0-.576,1.634v3.059h-2.563Z" transform="translate(-209.324 -18.771)" fill="#a6231e"/>
      <path id="Path_130" data-name="Path 130" d="M499.158,43.26h2.563v7.159h-2.563v-.784a2.675,2.675,0,0,1-2.226,1.026,3.428,3.428,0,0,1-2.578-1.138,3.611,3.611,0,0,1-1.026-2.626,3.958,3.958,0,0,1,1.106-2.867,3.685,3.685,0,0,1,2.579-1.009,2.831,2.831,0,0,1,2.146.928Zm-2.691,2.4a1.679,1.679,0,0,0-.512,1.169,1.643,1.643,0,0,0,.5,1.169,1.793,1.793,0,0,0,1.152.48,1.641,1.641,0,0,0,1.152-.5,1.552,1.552,0,0,0,.482-1.153,1.583,1.583,0,0,0-.5-1.169,1.625,1.625,0,0,0-2.275,0" transform="translate(-214.127 -18.673)" fill="#a6231e"/>
      <path id="Path_131" data-name="Path 131" d="M512.584,43.445l1.713,3.667,1.745-3.667h2.851l-3.73,7.159h-1.746l-3.7-7.159Z" transform="translate(-221.241 -18.857)" fill="#a6231e"/>
      <path id="Path_132" data-name="Path 132" d="M534.193,49.475a4.9,4.9,0,0,1-6.391,0,3.694,3.694,0,0,1,0-5.268,4.474,4.474,0,0,1,3.188-1.185,4.522,4.522,0,0,1,3.2,1.185,3.694,3.694,0,0,1,0,5.268m-4.341-3.811a1.588,1.588,0,0,0,0,2.306,1.6,1.6,0,0,0,2.291,0,1.578,1.578,0,0,0,.5-1.137,1.738,1.738,0,0,0-.5-1.169,1.644,1.644,0,0,0-2.291,0" transform="translate(-228.611 -18.674)" fill="#a6231e"/>
      <path id="Path_133" data-name="Path 133" d="M546.917,43.737V48.8h-2.561v-5.06h-.818v-2.1h.818V39.286h2.561v2.354h1.457v2.1Z" transform="translate(-235.92 -17.052)" fill="#a6231e"/>
      <path id="Path_134" data-name="Path 134" d="M553.784,43.322h2.561v.9a2.7,2.7,0,0,1,2.275-1.057,2.893,2.893,0,0,1,2.113.769,2.469,2.469,0,0,1,.674,2v4.548h-2.564v-3.62a2.052,2.052,0,0,0-.32-1.393,1.071,1.071,0,0,0-.816-.3,1.4,1.4,0,0,0-.945.336,1.648,1.648,0,0,0-.418,1.138v3.843h-2.561Z" transform="translate(-240.368 -18.734)" fill="#a6231e"/>
      <path id="Path_135" data-name="Path 135" d="M571.5,35.634a1.441,1.441,0,1,1-1.44,1.441,1.435,1.435,0,0,1,1.44-1.441m1.283,11.579h-2.562V40.054h2.562Z" transform="translate(-247.431 -15.467)" fill="#a6231e"/>
      <path id="Path_136" data-name="Path 136" d="M583.144,50.272a3.8,3.8,0,0,1-1.778.4,3.947,3.947,0,0,1-2.818-1.089,3.74,3.74,0,0,1-1.1-2.674,3.9,3.9,0,0,1,1.152-2.77,4.128,4.128,0,0,1,2.883-1.089,3.655,3.655,0,0,1,1.665.4V45.6a2.281,2.281,0,0,0-1.329-.465,1.681,1.681,0,0,0-1.249.5,1.746,1.746,0,0,0-.5,1.234,1.84,1.84,0,0,0,.448,1.2,1.742,1.742,0,0,0,1.315.544,1.931,1.931,0,0,0,1.312-.48Z" transform="translate(-250.637 -18.686)" fill="#a6231e"/>
      <path id="Path_137" data-name="Path 137" d="M592.657,35.465v7.094l2.418-2.578h3.475l-3.379,3.3,3.653,3.86h-3.557l-2.61-2.931V47.14H590.1V35.465Z" transform="translate(-256.129 -15.393)" fill="#a6231e"/>
      <path id="Path_138" data-name="Path 138" d="M611.376,39.981h2.563v7.158h-2.563v-.785a2.675,2.675,0,0,1-2.225,1.026,3.431,3.431,0,0,1-2.58-1.137,3.61,3.61,0,0,1-1.026-2.627,3.965,3.965,0,0,1,1.107-2.867,3.684,3.684,0,0,1,2.578-1.009,2.835,2.835,0,0,1,2.146.929Zm-2.691,2.4a1.678,1.678,0,0,0-.512,1.169,1.653,1.653,0,0,0,.5,1.169,1.8,1.8,0,0,0,1.152.48,1.641,1.641,0,0,0,1.153-.5,1.551,1.551,0,0,0,.482-1.153,1.588,1.588,0,0,0-.5-1.169,1.625,1.625,0,0,0-2.275,0m3.78-5.749L610,38.811l-1.186-.881,2.035-2.466Z" transform="translate(-262.834 -15.393)" fill="#a6231e"/>
      <path id="Path_139" data-name="Path 139" d="M630.206,44.585a3.677,3.677,0,0,0,1.024.528,3.359,3.359,0,0,0,.993.176,1.084,1.084,0,0,0,.656-.192.41.41,0,0,0,.129-.336.381.381,0,0,0-.129-.321,1.605,1.605,0,0,0-.672-.256l-.673-.16a2.3,2.3,0,0,1-1.25-.625,1.735,1.735,0,0,1-.464-1.233,2.56,2.56,0,0,1,.673-1.746,3.612,3.612,0,0,1,2.563-.865,5.914,5.914,0,0,1,2.29.465l-.865,1.633a3.543,3.543,0,0,0-1.345-.352,1.081,1.081,0,0,0-.591.144.384.384,0,0,0-.225.352.417.417,0,0,0,.3.4c.241.1.448.1.849.208l.465.128a3.033,3.033,0,0,1,1.057.56,2.027,2.027,0,0,1,.544,1.426,2.391,2.391,0,0,1-.721,1.777,3.72,3.72,0,0,1-2.643.9,5.28,5.28,0,0,1-2.882-.833Zm-.336-8.312,1.089-1.234,2.05,1.571,2.034-1.571,1.136,1.234-3.17,2.354Z" transform="translate(-273.142 -15.208)" fill="#a6231e"/>
      <path id="Path_140" data-name="Path 140" d="M645.215,35.465v7.094l2.418-2.578h3.476l-3.38,3.3,3.653,3.86h-3.556l-2.611-2.931V47.14h-2.561V35.465Z" transform="translate(-278.941 -15.393)" fill="#a6231e"/>
      <path id="Path_141" data-name="Path 141" d="M666.081,49.475a4.9,4.9,0,0,1-6.39,0,3.692,3.692,0,0,1,0-5.268,4.47,4.47,0,0,1,3.187-1.185,4.52,4.52,0,0,1,3.2,1.185,3.693,3.693,0,0,1,0,5.268m-4.34-3.811a1.587,1.587,0,0,0,0,2.306,1.6,1.6,0,0,0,2.29,0,1.582,1.582,0,0,0,.5-1.137,1.743,1.743,0,0,0-.5-1.169,1.644,1.644,0,0,0-2.29,0" transform="translate(-285.857 -18.674)" fill="#a6231e"/>
      <rect id="Rectangle_70" data-name="Rectangle 70" width="2.562" height="11.676" transform="translate(382.806 20.07)" fill="#a6231e"/>
      <path id="Path_142" data-name="Path 142" d="M689.321,43.26h2.563v7.159h-2.563v-.784a2.675,2.675,0,0,1-2.227,1.026,3.426,3.426,0,0,1-2.577-1.138,3.611,3.611,0,0,1-1.026-2.626A3.963,3.963,0,0,1,684.6,44.03a3.686,3.686,0,0,1,2.579-1.009,2.83,2.83,0,0,1,2.146.928Zm-2.69,2.4a1.679,1.679,0,0,0-.513,1.169,1.645,1.645,0,0,0,.5,1.169,1.793,1.793,0,0,0,1.153.48,1.647,1.647,0,0,0,1.153-.5,1.554,1.554,0,0,0,.481-1.153,1.582,1.582,0,0,0-.5-1.169,1.624,1.624,0,0,0-2.275,0" transform="translate(-296.667 -18.673)" fill="#a6231e"/>
      <path id="Path_143" data-name="Path 143" d="M350.486,71.182l2.563,6.5,2.594-6.5h3.011l-4.549,10.683h-2.162l-4.485-10.683Z" transform="translate(-150.813 -30.896)" fill="#d15b5b"/>
      <path id="Path_144" data-name="Path 144" d="M369.655,83.59,366.2,77.408h2.977l1.907,3.668,1.859-3.668h2.929l-5.75,10.826h-2.866Z" transform="translate(-158.947 -33.599)" fill="#d15b5b"/>
      <path id="Path_145" data-name="Path 145" d="M383.92,78.549a3.677,3.677,0,0,0,1.024.528,3.379,3.379,0,0,0,.994.177,1.084,1.084,0,0,0,.655-.192.409.409,0,0,0,.129-.336.381.381,0,0,0-.129-.321,1.6,1.6,0,0,0-.672-.256l-.673-.16a2.3,2.3,0,0,1-1.25-.625,1.733,1.733,0,0,1-.464-1.233,2.556,2.556,0,0,1,.673-1.746,3.615,3.615,0,0,1,2.563-.865,5.916,5.916,0,0,1,2.29.465l-.865,1.633a3.543,3.543,0,0,0-1.345-.352,1.082,1.082,0,0,0-.592.144.385.385,0,0,0-.225.353.418.418,0,0,0,.305.4c.239.1.448.1.848.208l.464.127a3.019,3.019,0,0,1,1.058.561,2.024,2.024,0,0,1,.546,1.425,2.394,2.394,0,0,1-.722,1.778,3.722,3.722,0,0,1-2.643.9,5.285,5.285,0,0,1-2.882-.833Zm-.337-8.312L384.673,69l2.05,1.571L388.757,69l1.136,1.234-3.17,2.354Z" transform="translate(-166.243 -29.95)" fill="#d15b5b"/>
      <path id="Path_146" data-name="Path 146" d="M396.487,78.549a3.67,3.67,0,0,0,1.024.528,3.379,3.379,0,0,0,.993.177,1.086,1.086,0,0,0,.657-.192.409.409,0,0,0,.129-.336.381.381,0,0,0-.129-.321,1.6,1.6,0,0,0-.672-.256l-.673-.16a2.3,2.3,0,0,1-1.249-.625,1.733,1.733,0,0,1-.464-1.233,2.556,2.556,0,0,1,.672-1.746,3.617,3.617,0,0,1,2.563-.865,5.922,5.922,0,0,1,2.29.465l-.865,1.633a3.546,3.546,0,0,0-1.345-.352,1.084,1.084,0,0,0-.592.144.385.385,0,0,0-.225.353.418.418,0,0,0,.3.4c.24.1.448.1.849.208l.464.127a3.026,3.026,0,0,1,1.058.561,2.023,2.023,0,0,1,.544,1.425,2.392,2.392,0,0,1-.721,1.778,3.721,3.721,0,0,1-2.643.9,5.283,5.283,0,0,1-2.882-.833Zm-.337-8.312L397.24,69l2.05,1.571L401.324,69l1.136,1.234-3.17,2.354Z" transform="translate(-171.697 -29.95)" fill="#d15b5b"/>
      <path id="Path_147" data-name="Path 147" d="M411.438,81.1h-2.561V73.944h2.561Zm1.25-10.506-2.465,2.179-1.187-.881,2.036-2.467Z" transform="translate(-177.471 -30.135)" fill="#d15b5b"/>
      <path id="Path_148" data-name="Path 148" d="M430.069,83.437a4.9,4.9,0,0,1-6.392,0,3.694,3.694,0,0,1,0-5.268,4.479,4.479,0,0,1,3.189-1.185,4.526,4.526,0,0,1,3.2,1.185,3.695,3.695,0,0,1,0,5.268m-4.34-3.811a1.584,1.584,0,0,0,0,2.306,1.6,1.6,0,0,0,2.29,0,1.578,1.578,0,0,0,.5-1.138,1.737,1.737,0,0,0-.5-1.168,1.644,1.644,0,0,0-2.29,0" transform="translate(-183.416 -33.415)" fill="#d15b5b"/>
      <path id="Path_149" data-name="Path 149" d="M448.259,81.1H445.7v-.784a2.625,2.625,0,0,1-2.161,1.023,3.42,3.42,0,0,1-2.514-.993,3.94,3.94,0,0,1-1.154-2.851,3.9,3.9,0,0,1,1.17-2.833,3.658,3.658,0,0,1,2.53-.962,2.83,2.83,0,0,1,2.129.93V69.427h2.564Zm-3.027-2.37a1.716,1.716,0,0,0,.545-1.217,1.872,1.872,0,0,0-.483-1.153,1.641,1.641,0,0,0-2.3-.016,1.756,1.756,0,0,0-.5,1.217,1.614,1.614,0,0,0,.5,1.121,1.591,1.591,0,0,0,1.138.48,1.749,1.749,0,0,0,1.1-.432" transform="translate(-190.922 -30.135)" fill="#d15b5b"/>
      <path id="Path_150" data-name="Path 150" d="M460.372,69.427v5.205a2.83,2.83,0,0,1,2.13-.929,3.661,3.661,0,0,1,2.53.961A3.9,3.9,0,0,1,466.2,77.5a3.945,3.945,0,0,1-1.155,2.85,3.425,3.425,0,0,1-2.515.994,2.627,2.627,0,0,1-2.161-1.025V81.1h-2.563V69.427Zm2.706,9.257a1.615,1.615,0,0,0,.5-1.121,1.758,1.758,0,0,0-.5-1.218,1.643,1.643,0,0,0-2.306.016,1.878,1.878,0,0,0-.482,1.153,1.714,1.714,0,0,0,.545,1.217,1.751,1.751,0,0,0,1.1.433,1.589,1.589,0,0,0,1.138-.481" transform="translate(-198.71 -30.135)" fill="#d15b5b"/>
      <path id="Path_151" data-name="Path 151" d="M482.23,83.437a4.9,4.9,0,0,1-6.391,0,3.694,3.694,0,0,1,0-5.268,4.473,4.473,0,0,1,3.187-1.185,4.524,4.524,0,0,1,3.2,1.185,3.692,3.692,0,0,1,0,5.268m-4.34-3.811a1.586,1.586,0,0,0,0,2.306,1.6,1.6,0,0,0,2.29,0,1.582,1.582,0,0,0,.5-1.138,1.742,1.742,0,0,0-.5-1.168,1.645,1.645,0,0,0-2.29,0" transform="translate(-206.057 -33.415)" fill="#d15b5b"/>
      <path id="Path_152" data-name="Path 152" d="M492.536,77.321H495.1V78.49a2.312,2.312,0,0,1,1.01-.992,2.777,2.777,0,0,1,1.328-.289c.064,0,.177.016.512.031V79.66a2.24,2.24,0,0,0-1.1-.256,1.679,1.679,0,0,0-1.168.384,2.158,2.158,0,0,0-.578,1.634v3.058h-2.562Z" transform="translate(-213.783 -33.512)" fill="#d15b5b"/>
      <path id="Path_153" data-name="Path 153" d="M504.112,77.284h2.562v.9a2.7,2.7,0,0,1,2.275-1.057,2.891,2.891,0,0,1,2.113.769,2.468,2.468,0,0,1,.674,2v4.548h-2.564V80.824a2.051,2.051,0,0,0-.319-1.393,1.073,1.073,0,0,0-.817-.3,1.4,1.4,0,0,0-.945.336,1.644,1.644,0,0,0-.418,1.136v3.843h-2.562Z" transform="translate(-218.808 -33.475)" fill="#d15b5b"/>
      <path id="Path_154" data-name="Path 154" d="M525.988,73.944h2.563V81.1h-2.563v-.784a2.671,2.671,0,0,1-2.225,1.024,3.424,3.424,0,0,1-2.578-1.136,3.606,3.606,0,0,1-1.027-2.627,3.965,3.965,0,0,1,1.107-2.868,3.683,3.683,0,0,1,2.577-1.008,2.83,2.83,0,0,1,2.146.929Zm-2.69,2.4a1.675,1.675,0,0,0-.512,1.17,1.655,1.655,0,0,0,.5,1.169,1.8,1.8,0,0,0,1.153.481,1.641,1.641,0,0,0,1.152-.5,1.548,1.548,0,0,0,.482-1.153,1.587,1.587,0,0,0-.5-1.17,1.626,1.626,0,0,0-2.275,0m3.78-5.749-2.466,2.178-1.186-.881,2.035-2.466Z" transform="translate(-225.773 -30.135)" fill="#d15b5b"/>
      <path id="Path_155" data-name="Path 155" d="M544.818,78.549a3.67,3.67,0,0,0,1.024.528,3.379,3.379,0,0,0,.993.177,1.085,1.085,0,0,0,.656-.192.409.409,0,0,0,.129-.336.381.381,0,0,0-.129-.321,1.6,1.6,0,0,0-.672-.256l-.673-.16a2.3,2.3,0,0,1-1.249-.625,1.734,1.734,0,0,1-.464-1.233,2.556,2.556,0,0,1,.672-1.746,3.618,3.618,0,0,1,2.563-.865,5.919,5.919,0,0,1,2.29.465l-.865,1.633a3.546,3.546,0,0,0-1.345-.352,1.085,1.085,0,0,0-.593.144.385.385,0,0,0-.225.353.418.418,0,0,0,.3.4c.239.1.448.1.849.208l.464.127a3.026,3.026,0,0,1,1.058.561,2.024,2.024,0,0,1,.546,1.425,2.392,2.392,0,0,1-.723,1.778,3.721,3.721,0,0,1-2.643.9,5.283,5.283,0,0,1-2.882-.833Zm-.337-8.312L545.571,69l2.05,1.571L549.655,69l1.136,1.234-3.17,2.354Z" transform="translate(-236.08 -29.95)" fill="#d15b5b"/>
      <path id="Path_156" data-name="Path 156" d="M559.826,69.428v7.095l2.417-2.579h3.475l-3.379,3.3,3.653,3.86h-3.557l-2.609-2.931V81.1h-2.563V69.428Z" transform="translate(-241.878 -30.135)" fill="#d15b5b"/>
      <path id="Path_157" data-name="Path 157" d="M580.694,83.437a4.9,4.9,0,0,1-6.391,0,3.694,3.694,0,0,1,0-5.268,4.478,4.478,0,0,1,3.189-1.185,4.524,4.524,0,0,1,3.2,1.185,3.694,3.694,0,0,1,0,5.268m-4.34-3.811a1.584,1.584,0,0,0,0,2.306,1.6,1.6,0,0,0,2.29,0,1.58,1.58,0,0,0,.5-1.138,1.74,1.74,0,0,0-.5-1.168,1.644,1.644,0,0,0-2.29,0" transform="translate(-248.794 -33.415)" fill="#d15b5b"/>
      <rect id="Rectangle_71" data-name="Rectangle 71" width="2.562" height="11.676" transform="translate(334.48 39.292)" fill="#d15b5b"/>
      <path id="Path_158" data-name="Path 158" d="M603.932,77.224h2.562v7.158h-2.562V83.6a2.676,2.676,0,0,1-2.227,1.025,3.421,3.421,0,0,1-2.577-1.139A3.6,3.6,0,0,1,598.1,80.86a3.967,3.967,0,0,1,1.107-2.868,3.683,3.683,0,0,1,2.579-1.009,2.833,2.833,0,0,1,2.146.929Zm-2.691,2.4a1.678,1.678,0,0,0-.512,1.168,1.646,1.646,0,0,0,.5,1.17,1.792,1.792,0,0,0,1.152.48,1.647,1.647,0,0,0,1.153-.5,1.561,1.561,0,0,0,.48-1.155,1.582,1.582,0,0,0-.5-1.168,1.625,1.625,0,0,0-2.275,0" transform="translate(-259.603 -33.415)" fill="#d15b5b"/>
      <path id="Path_159" data-name="Path 159" d="M352.318,116.432h2.994v2.1h-7.286l3.379-5.061h-2.883v-2.1h7.142Z" transform="translate(-151.059 -48.34)" fill="#d15b5b"/>
      <path id="Path_160" data-name="Path 160" d="M371.532,115.065h-2.563v-.784a2.627,2.627,0,0,1-2.161,1.025,3.422,3.422,0,0,1-2.514-.994,3.947,3.947,0,0,1-1.154-2.851,3.894,3.894,0,0,1,1.17-2.833,3.659,3.659,0,0,1,2.53-.962,2.829,2.829,0,0,1,2.129.93V103.39h2.563ZM368.5,112.7a1.716,1.716,0,0,0,.545-1.217,1.876,1.876,0,0,0-.482-1.153,1.643,1.643,0,0,0-2.306-.016,1.757,1.757,0,0,0-.5,1.217,1.618,1.618,0,0,0,.5,1.121,1.591,1.591,0,0,0,1.138.48,1.748,1.748,0,0,0,1.105-.432" transform="translate(-157.619 -44.876)" fill="#d15b5b"/>
      <path id="Path_161" data-name="Path 161" d="M381.083,111.284h2.563v1.169a2.3,2.3,0,0,1,1.009-.992,2.78,2.78,0,0,1,1.329-.289c.064,0,.177.016.512.031v2.419a2.247,2.247,0,0,0-1.1-.256,1.679,1.679,0,0,0-1.168.384,2.158,2.158,0,0,0-.576,1.634v3.058h-2.563Z" transform="translate(-165.408 -48.254)" fill="#d15b5b"/>
      <path id="Path_162" data-name="Path 162" d="M397.977,111.186h2.563v7.158h-2.563v-.783a2.674,2.674,0,0,1-2.226,1.026,3.422,3.422,0,0,1-2.577-1.139,3.6,3.6,0,0,1-1.027-2.624,3.964,3.964,0,0,1,1.106-2.868,3.686,3.686,0,0,1,2.58-1.009,2.828,2.828,0,0,1,2.144.929Zm-2.69,2.4a1.675,1.675,0,0,0-.512,1.168,1.646,1.646,0,0,0,.5,1.17,1.794,1.794,0,0,0,1.153.48,1.643,1.643,0,0,0,1.152-.5,1.558,1.558,0,0,0,.481-1.155,1.582,1.582,0,0,0-.5-1.168,1.625,1.625,0,0,0-2.275,0" transform="translate(-170.21 -48.156)" fill="#d15b5b"/>
      <path id="Path_163" data-name="Path 163" d="M411.4,111.37l1.714,3.667,1.745-3.667h2.85l-3.729,7.158h-1.747l-3.7-7.158Z" transform="translate(-177.324 -48.34)" fill="#d15b5b"/>
      <path id="Path_164" data-name="Path 164" d="M433.014,117.4a4.9,4.9,0,0,1-6.392,0,3.695,3.695,0,0,1,0-5.268,4.478,4.478,0,0,1,3.189-1.185,4.526,4.526,0,0,1,3.2,1.185,3.695,3.695,0,0,1,0,5.268m-4.341-3.811a1.587,1.587,0,0,0,0,2.306,1.6,1.6,0,0,0,2.29,0,1.578,1.578,0,0,0,.5-1.137,1.738,1.738,0,0,0-.5-1.169,1.645,1.645,0,0,0-2.29,0" transform="translate(-184.695 -48.156)" fill="#d15b5b"/>
      <path id="Path_165" data-name="Path 165" d="M445.737,111.664v5.06h-2.562v-5.06h-.817v-2.1h.817v-2.354h2.562v2.354h1.457v2.1Z" transform="translate(-192.004 -46.535)" fill="#d15b5b"/>
      <path id="Path_166" data-name="Path 166" d="M452.6,111.247h2.562v.9a2.7,2.7,0,0,1,2.275-1.057,2.893,2.893,0,0,1,2.113.769,2.468,2.468,0,0,1,.674,2v4.548h-2.564v-3.619a2.054,2.054,0,0,0-.319-1.393,1.075,1.075,0,0,0-.817-.3,1.4,1.4,0,0,0-.945.337,1.642,1.642,0,0,0-.418,1.136v3.843H452.6Z" transform="translate(-196.45 -48.217)" fill="#d15b5b"/>
      <path id="Path_167" data-name="Path 167" d="M470.319,103.56A1.441,1.441,0,1,1,468.878,105a1.435,1.435,0,0,1,1.441-1.442m1.281,11.58h-2.562v-7.159H471.6Z" transform="translate(-203.515 -44.95)" fill="#d15b5b"/>
      <path id="Path_168" data-name="Path 168" d="M481.965,118.2a3.8,3.8,0,0,1-1.778.4,3.952,3.952,0,0,1-2.818-1.089,3.743,3.743,0,0,1-1.1-2.674,3.894,3.894,0,0,1,1.153-2.771,4.125,4.125,0,0,1,2.882-1.089,3.669,3.669,0,0,1,1.665.4v2.146a2.284,2.284,0,0,0-1.329-.465,1.678,1.678,0,0,0-1.249.5,1.741,1.741,0,0,0-.5,1.234,1.838,1.838,0,0,0,.448,1.2,1.742,1.742,0,0,0,1.315.544,1.937,1.937,0,0,0,1.312-.481Z" transform="translate(-206.721 -48.169)" fill="#d15b5b"/>
      <path id="Path_169" data-name="Path 169" d="M491.477,103.391v7.094l2.417-2.578h3.476l-3.379,3.3,3.653,3.86h-3.556l-2.61-2.931v2.931h-2.562V103.391Z" transform="translate(-212.212 -44.876)" fill="#d15b5b"/>
      <path id="Path_170" data-name="Path 170" d="M510.2,107.907h2.563v7.158H510.2v-.784a2.674,2.674,0,0,1-2.225,1.026,3.428,3.428,0,0,1-2.579-1.138,3.61,3.61,0,0,1-1.026-2.627,3.963,3.963,0,0,1,1.107-2.868,3.686,3.686,0,0,1,2.577-1.008,2.83,2.83,0,0,1,2.146.929Zm-2.691,2.4a1.677,1.677,0,0,0-.513,1.17,1.656,1.656,0,0,0,.5,1.169,1.8,1.8,0,0,0,1.153.481,1.641,1.641,0,0,0,1.152-.5,1.548,1.548,0,0,0,.482-1.153,1.594,1.594,0,0,0-.5-1.17,1.627,1.627,0,0,0-2.275,0m3.78-5.749-2.466,2.178-1.186-.881,2.035-2.466Z" transform="translate(-218.918 -44.876)" fill="#d15b5b"/>
      <path id="Path_171" data-name="Path 171" d="M530.375,105.145l2.561,6.5,2.6-6.5h3.011L534,115.828h-2.162l-4.485-10.683Z" transform="translate(-228.893 -45.638)" fill="#d15b5b"/>
      <path id="Path_172" data-name="Path 172" d="M546.4,115.975a3.652,3.652,0,0,0,1.026.528,3.309,3.309,0,0,0,.992.176,1.1,1.1,0,0,0,.658-.192.41.41,0,0,0,.127-.336.379.379,0,0,0-.127-.32,1.6,1.6,0,0,0-.674-.256l-.671-.161a2.306,2.306,0,0,1-1.249-.624,1.732,1.732,0,0,1-.466-1.233,2.558,2.558,0,0,1,.674-1.746,3.609,3.609,0,0,1,2.561-.865,5.893,5.893,0,0,1,2.29.465l-.864,1.633a3.546,3.546,0,0,0-1.345-.352,1.081,1.081,0,0,0-.593.144.386.386,0,0,0-.225.352.417.417,0,0,0,.3.4c.241.1.448.1.849.207l.465.128a3.048,3.048,0,0,1,1.057.561,2.027,2.027,0,0,1,.544,1.425,2.388,2.388,0,0,1-.722,1.777,3.716,3.716,0,0,1-2.642.9,5.274,5.274,0,0,1-2.882-.831Z" transform="translate(-236.768 -48.156)" fill="#d15b5b"/>
      <path id="Path_173" data-name="Path 173" d="M566.206,115.263h-5.334a1.814,1.814,0,0,0,.449,1.2,1.442,1.442,0,0,0,1.057.352,2.028,2.028,0,0,0,.833-.192,1.182,1.182,0,0,0,.448-.48h2.451a3.213,3.213,0,0,1-.864,1.474,3.892,3.892,0,0,1-2.915.993,4.066,4.066,0,0,1-2.963-1.089,3.749,3.749,0,0,1-1.058-2.706,3.824,3.824,0,0,1,1.074-2.771A4.028,4.028,0,0,1,562.314,111a3.92,3.92,0,0,1,2.755.977,4,4,0,0,1,1.138,3.01Zm-2.354-1.473a1.723,1.723,0,0,0-.416-.769,1.491,1.491,0,0,0-1.058-.385,1.374,1.374,0,0,0-1.04.385,1.453,1.453,0,0,0-.385.769Z" transform="translate(-242.332 -48.18)" fill="#d15b5b"/>
      <path id="Path_174" data-name="Path 174" d="M577.285,111.664v5.06h-2.561v-5.06h-.818v-2.1h.818v-2.354h2.561v2.354h1.457v2.1Z" transform="translate(-249.102 -46.535)" fill="#d15b5b"/>
      <path id="Path_175" data-name="Path 175" d="M586.656,115.066h-2.563v-7.158h2.563Zm1.249-10.506-2.465,2.179-1.186-.882,2.034-2.466Z" transform="translate(-253.523 -44.876)" fill="#d15b5b"/>
      <path id="Path_176" data-name="Path 176" d="M591.708,111.247h2.562v.9a2.7,2.7,0,0,1,2.275-1.057,2.894,2.894,0,0,1,2.113.769,2.468,2.468,0,0,1,.674,2v4.548h-2.564v-3.619a2.048,2.048,0,0,0-.32-1.393,1.071,1.071,0,0,0-.816-.3,1.4,1.4,0,0,0-.945.337,1.642,1.642,0,0,0-.418,1.136v3.843h-2.562Z" transform="translate(-256.829 -48.217)" fill="#d15b5b"/>
      <path id="Path_177" data-name="Path 177" d="M105.6,3l0,.007L90.223,38.18c.016-.072.03-.144.047-.217v0a15.444,15.444,0,0,0-15.082-18.7L82.3,3Z" transform="translate(-32.635 -1.303)" fill="#002f76"/>
      <path id="Path_178" data-name="Path 178" d="M111.731,17.436l-.138.319L99.828,44.683l.016.093v0l5,29.34h23.6L116.471,6.541Z" transform="translate(-43.33 -2.839)" fill="#002f76"/>
      <path id="Path_179" data-name="Path 179" d="M36.559,34.693a15.552,15.552,0,0,0,.309,3.1l-4.306-9.9L21.741,3H44.882L51.99,19.263a15.428,15.428,0,0,0-15.431,15.43" transform="translate(-9.437 -1.303)" fill="#002f76"/>
      <path id="Path_180" data-name="Path 180" d="M11.965,6.273,0,73.849H23.592l5.012-29.4v0L23.125,31.855,11.85,5.921Z" transform="translate(0 -2.57)" fill="#002f76"/>
      <path id="Path_181" data-name="Path 181" d="M78.22,74.533,71.228,90.615l-5.683,13,0-.007L52.963,74.68a15.433,15.433,0,0,0,25.257-.147" transform="translate(-22.988 -32.351)" fill="#002f76"/>
      <path id="Path_182" data-name="Path 182" d="M78.485,48.153A14.166,14.166,0,0,1,64.333,62.3h0A14.153,14.153,0,0,1,64.226,34h.106a14.15,14.15,0,0,1,11.141,5.424l-6.092,2.646-.072-.059A7.83,7.83,0,0,0,64.333,40.2h0l-.072,0h-.024a7.936,7.936,0,0,0,0,15.869l.1,0a7.927,7.927,0,0,0,7.527-5.668H66.238V45.123H78.382l.042.439c.048.469.062,2.354.062,2.591" transform="translate(-21.779 -14.756)" fill="#002f76"/>
      <path id="Path_183" data-name="Path 183" d="M209.837,16.425A18.072,18.072,0,0,0,191.88,0a17.885,17.885,0,0,0-13.716,29.363l31.6,41.774.094.131Z" transform="translate(-75.522 0)" fill="#a6231e"/>
      <path id="Path_184" data-name="Path 184" d="M255.363,0a18.074,18.074,0,0,0-17.957,16.425l-.024,54.844.095-.131,31.6-41.774A17.885,17.885,0,0,0,255.363,0m8.492,23.261h-6v6h-6.282v-6h-6V16.979h6v-6h6.282v6h6Z" transform="translate(-103.035 0)" fill="#d15b5b"/>
    </g>
  </g>
</svg>
