<?xml version="1.0" encoding="utf-8"?>
<!-- Generator: Adobe Illustrator 16.0.0, SVG Export Plug-In . SVG Version: 6.00 Build 0)  -->
<!DOCTYPE svg PUBLIC "-//W3C//DTD SVG 1.1//EN" "http://www.w3.org/Graphics/SVG/1.1/DTD/svg11.dtd">
<svg version="1.1" id="Layer_1" xmlns="http://www.w3.org/2000/svg" xmlns:xlink="http://www.w3.org/1999/xlink" x="0px" y="0px"
	 width="600px" height="400px" viewBox="0 0 600 400" enable-background="new 0 0 600 400" xml:space="preserve">
<g>
	<g>
		<path fill-rule="evenodd" clip-rule="evenodd" fill="#FFFFFF" d="M376.908,21.7c0.192,3.229,0.437,6.455,0.564,9.686
			c0.101,2.531-0.193,4.973,1.656,7.284c0.895,1.118,0.702,3.287,0.626,4.963c-0.15,3.327,1.296,5.859,3.953,7.433
			c1.929,1.143,2.262,2.685,1.818,4.32c-1.472,5.427,0.432,10.276,2.279,15.137c1.235,3.251,2.706,6.414,4.147,9.796
			c-3.638,2.84-2.524,7.023-2.034,10.603c0.222,1.615,3.042,3.172,4.978,4.198c5.715,3.028,11.576,5.778,17.532,8.713
			c-0.638,6.624-1.165,13.534-1.996,20.407c-1.224,10.123-1.897,20.359-5.201,30.116c-0.543,1.602-1.655,3.012-2.504,4.51
			c-0.402-0.145-0.805-0.29-1.207-0.435c0-15.164,0-30.327,0-45.491c-0.261,0.095-0.521,0.19-0.783,0.286
			c-0.826-0.813-1.569-1.735-2.494-2.412c-2.058-1.507-2.72,0.04-3.122,1.862c-8.182-5.896-16.43-1.395-24.591-0.889
			c-0.17-3.672-3.051-1.524-5.374-2.417c-0.936,5.116-2.327,9.947-2.614,14.843c-0.693,11.869-1.126,23.765-1.177,35.652
			c-0.036,8.697,0.665,17.398,1.108,26.096c0.314,6.201,0.746,12.395,1.126,18.592c0.493,8.021,0.986,16.04,1.485,24.142
			c1.742,0.073,2.494-0.879,2.902-2.702c1.502-6.709,3.6-13.313,4.658-20.084c0.955-6.113,4.103-9.973,9.004-13.415
			c6.353-4.463,12.163-9.698,18.194-14.617c7.389-6.026,14.661-12.2,22.175-18.064c6.332-4.943,12.741-9.843,19.497-14.164
			c3.741-2.393,8.184-3.808,12.461-5.2c3.417-1.114,5.292,2.086,7.509,3.814c8.671,6.758,17.219,13.675,25.784,20.567
			c2.518,2.026,4.942,4.166,7.431,6.271c5.974-3.361,11.707-6.86,17.725-9.771c1.403-0.679,3.925,0.307,5.673,1.098
			c7.818,3.53,15.638,7.085,23.282,10.973c13.532,6.882,26.941,14.005,40.392,21.047c1.49,0.778,3.001,1.57,4.327,2.587
			c0.379,0.29,0.396,1.916,0.147,2.037c-5.745,2.787-6.062,8.404-6.708,13.517c-1.266,9.995-2.027,20.055-2.972,30.091
			c-0.605,6.44-1.158,12.886-1.758,19.326c-0.041,0.434-0.284,0.849-0.434,1.272c-0.257,0.021-0.515,0.043-0.771,0.064
			c-0.363-2.838-0.9-5.665-1.053-8.514c-0.316-5.941-0.41-11.893-0.631-17.839c-0.365-9.86-0.781-19.719-1.129-29.579
			c-0.124-3.494-0.908-4.52-4.499-4.539c-13.784-0.069-27.57-0.028-41.587-0.028c-0.395,5.858-0.783,11.611-1.172,17.365
			c-0.373,0.009-0.746,0.018-1.119,0.025c-0.538-8.779-1.076-17.559-1.633-26.65c-1.056,0-2.086,0.019-3.115-0.003
			c-9.22-0.19-18.438-0.505-27.659-0.558c-16.152-0.093-32.306-0.025-49.028-0.025c0,12.126,0,24.671,0,37.624
			c-1.579,0-2.598-0.02-3.615,0.003c-13.826,0.299-27.653,0.7-41.481,0.869c-7.962,0.097-15.927-0.192-23.891-0.292
			c-16.068-0.202-32.137-0.429-48.207-0.575c-8.619-0.078-17.241-0.014-26.159-0.014c0-2.049-0.113-3.285,0.023-4.492
			c0.263-2.312-0.876-2.993-2.97-3.045c-4.885-0.123-9.766-0.5-14.65-0.536c-31.693-0.235-63.387-0.376-95.08-0.613
			c-13.852-0.104-27.703-0.303-41.552-0.584c-6.015-0.122-12.022-0.562-18.33-0.871c-0.353-6.163-0.683-12.347-1.073-18.526
			c-0.114-1.796-0.217-3.632-0.681-5.353c-0.201-0.743-1.282-1.734-2.004-1.771c-3.644-0.18-7.303-0.083-10.998,0.497
			c1.022,0,2.043-0.001,3.065,0c4.988,0.006,6.842,2.297,5.968,7.097c-1.086,5.959-2.578,11.889-1.251,18.063
			c0.149,0.692-1.199,2.388-1.995,2.487c-4.143,0.521-8.332,0.677-12.104,0.934c-1.511-9.729-2.948-18.972-4.411-28.395
			c-22.038,0-44.069,0-66.221,0c-0.266,4.02-0.7,8.002-0.764,11.99c-0.264,16.456-0.385,32.915-0.618,49.372
			c-0.129,9.126-0.453,18.25-0.546,27.377c-0.097,9.51-0.021,19.021-0.021,28.53c-0.361,0.036-0.723,0.072-1.084,0.109
			c-0.212-0.8-0.591-1.597-0.613-2.401c-0.237-9.026-0.359-18.058-0.634-27.084c-0.325-10.728-0.768-21.453-1.164-32.179
			c-0.18-4.885-0.529-9.769-0.516-14.651c0.016-5.964,0.529-11.931,0.466-17.892c-0.082-7.725-1.62-15.176-4.845-22.28
			c-1.625-3.58-2.812-7.361-4.152-11.068c-0.555-1.536-0.07-2.423,1.465-3.372c9.878-6.103,19.849-12.089,29.393-18.687
			c9.529-6.589,18.595-13.848,28.163-21.036c2.595,2.688,5.333,5.677,8.229,8.501c9.625,9.388,20.231,17.48,32.052,23.933
			c0.469,0.255,1.064,0.364,1.607,0.387c5.17,0.217,10.343,0.349,15.511,0.6c11.272,0.549,22.546,1.08,33.81,1.761
			c7.226,0.438,14.433,1.173,21.653,1.697c11.133,0.81,22.27,1.566,33.407,2.322c6.098,0.414,12.193,0.98,18.299,1.133
			c19.407,0.48,38.819,1.093,58.227,1.05c9.304-0.021,18.62-1.235,27.896-2.225c6.292-0.67,12.522-1.909,18.786-2.848
			c2.154-0.323,2.975-1.329,2.982-3.633c0.031-7.876,0.291-15.752,0.516-23.628c0.139-4.882,0.807-9.794,0.449-14.634
			c-0.471-6.39-1.656-12.73-2.682-19.068c-0.165-1.01-0.889-2.214-1.726-2.772c-1.887-1.261-1.618-2.387-0.171-3.587
			c3.689-3.062,7.482-5.998,11.122-9.115c2.292-1.963,4.542-4.019,6.53-6.28c3.992-4.543,3.639-9.392,0.41-14.196
			c-0.777-1.158-0.823-2.079-0.279-3.403c1.572-3.826,2.865-7.768,4.353-11.63c1.683-4.37,1.405-8.71,0.015-13.183
			c1.258-1.003,2.698-1.924,3.852-3.12c2.024-2.097,1.863-4.798,1.887-7.507c0.033-3.634,0.361-7.268,0.66-10.894
			c0.281-3.402,0.689-6.794,1.041-10.19C376.522,21.7,376.715,21.7,376.908,21.7z"/>
		<path fill-rule="evenodd" clip-rule="evenodd" fill="#FFFFFF" d="M10,352.148c3.782-1.913,7.64-3.695,11.332-5.769
			c8.811-4.949,17.615-9.918,26.277-15.12c4.364-2.62,8.412-5.767,12.02-8.271c1.088,0.944,2.17,2.628,3.58,2.971
			c4.476,1.09,9.049,1.896,13.63,2.4c4.367,0.48,8.796,0.692,13.188,0.589c9.188-0.22,18.375-0.62,27.55-1.148
			c7.033-0.404,14.055-1.049,21.069-1.714c9.37-0.889,18.723-1.953,28.093-2.841c5.313-0.502,10.653-0.719,15.967-1.213
			c7.286-0.677,14.553-1.554,21.838-2.235c5.315-0.496,10.653-0.744,15.97-1.23c7.573-0.692,15.133-1.531,22.706-2.248
			c4.835-0.459,9.684-0.779,14.521-1.216c8.146-0.735,16.287-1.533,24.434-2.267c4.838-0.436,9.688-0.757,14.525-1.204
			c7.861-0.726,15.715-1.535,23.576-2.268c4.739-0.441,9.488-0.777,14.23-1.205c8.24-0.744,16.477-1.558,24.721-2.273
			c5.318-0.461,10.654-0.719,15.969-1.212c7.379-0.684,14.74-1.55,22.118-2.248c5.127-0.483,10.271-0.761,15.399-1.229
			c7.764-0.708,15.519-1.521,23.28-2.247c4.742-0.443,9.494-0.773,14.237-1.208c8.048-0.735,16.09-1.543,24.14-2.262
			c5.129-0.457,10.272-0.752,15.4-1.219c7.765-0.708,15.519-1.538,23.282-2.246c5.125-0.468,10.268-0.751,15.392-1.227
			c7.568-0.701,15.123-1.542,22.691-2.243c5.125-0.476,10.264-0.8,15.394-1.216c5.937-0.481,11.87-0.992,17.899-1.04
			c-1.746,0.342-3.48,0.769-5.24,1.011c-10.137,1.391-20.286,2.691-30.418,4.112c-10.499,1.473-20.973,3.119-31.475,4.554
			c-7.99,1.091-16.019,1.894-24.012,2.963c-9.379,1.254-18.727,2.73-28.106,3.974c-8.182,1.083-16.398,1.896-24.581,2.971
			c-11.085,1.456-22.143,3.112-33.229,4.557c-6.963,0.907-13.968,1.499-20.935,2.389c-8.172,1.043-16.315,2.316-24.486,3.374
			c-5.461,0.708-10.953,1.165-16.421,1.824c-5.453,0.657-10.89,1.458-16.341,2.137c-5.367,0.669-10.748,1.239-16.116,1.901
			c-5.924,0.729-11.834,1.567-17.762,2.26c-5.661,0.662-11.343,1.139-17.004,1.805c-5.646,0.663-11.271,1.495-16.914,2.188
			c-3.865,0.475-7.747,0.806-11.614,1.259c-6.218,0.729-12.426,1.546-18.646,2.251c-5.76,0.654-11.534,1.176-17.296,1.819
			c-6.41,0.717-12.808,1.54-19.218,2.25c-5.762,0.64-11.536,1.161-17.3,1.782c-6.798,0.733-13.584,1.568-20.385,2.266
			c-6.438,0.662-12.894,1.149-19.332,1.812c-6.606,0.68-13.194,1.528-19.801,2.207c-4.831,0.495-9.682,0.789-14.516,1.251
			c-7.571,0.722-15.132,1.543-22.703,2.256c-4.932,0.465-9.877,0.793-14.813,1.212c-8.821,0.752-17.639,1.543-26.461,2.28
			c-3.141,0.263-6.291,0.418-9.438,0.617c-6.192,0.395-12.385,0.775-18.576,1.198c-0.442,0.029-0.863,0.351-1.294,0.537
			C10,352.921,10,352.534,10,352.148z"/>
		<g>
			<path fill-rule="evenodd" clip-rule="evenodd" fill="#FFFFFF" d="M535.477,376.455c-3.933-0.771-7.969-1.209-11.775-2.389
				c-6.529-2.023-12.377-5.063-15.555-11.798c-3.279-6.955-1.064-18.025,5.681-22.793c5.545-3.918,11.758-5.979,18.459-6.395
				c6.219-0.387,12.482-0.846,18.684-0.501c7.902,0.44,15.957,1.163,22.763,5.815c1.967,1.346,3.233,3.818,4.595,5.921
				c1.428,2.205-0.031,2.631-1.918,2.628c-6.653-0.011-13.305-0.005-18.853-0.005c-2.035-1.921-3.233-3.841-4.924-4.501
				c-4.995-1.95-10.278-1.828-15.448-0.631c-4.954,1.146-7.345,4.804-7.997,9.564c-0.309,2.258-0.303,4.676,0.151,6.9
				c1.227,6.01,4.824,9.115,11.413,9.395c3.743,0.159,7.557-0.512,11.286-1.122c2.337-0.383,4.207-1.726,4.422-4.398
				c7.521,0,14.903,0,22.413,0c-0.681,5.309-3.874,8.28-8.326,10.333c-4.982,2.297-10.22,3.271-15.655,3.44
				c-0.304,0.009-0.597,0.349-0.896,0.535C547.823,376.455,541.65,376.455,535.477,376.455z"/>
		</g>
		<g>
			<g>
				<path fill-rule="evenodd" clip-rule="evenodd" fill="#FFFFFF" d="M94.155,258.874c10.014,0.602,19.204,1.032,27.852,4.725
					c7.369,3.146,12.676,8.193,13.438,16.441c0.492,5.324-1.492,10.052-5.829,13.749c-8.138,6.938-17.842,8.789-28.042,9.135
					c-5.225,0.177-10.486,0.367-15.685-0.041c-9.094-0.714-18.034-2.267-25.584-8.039c-8.93-6.829-9.119-19.245-0.586-26.411
					c6.438-5.405,13.898-7.392,21.894-8.283C86.06,259.652,90.516,259.241,94.155,258.874z M111.851,281.268
					c0.362-5.188-2.303-10.085-7.385-11.796c-6.336-2.13-12.692-2.519-19.128-0.149c-5.415,1.993-8.193,5.707-8.202,11.552
					c-0.01,6.447,2.607,10.41,8.053,12.274c4.742,1.621,9.486,1.72,14.516,1.296C106.416,293.88,112.448,288.744,111.851,281.268z"
					/>
			</g>
		</g>
		<g>
			<path fill-rule="evenodd" clip-rule="evenodd" fill="#FFFFFF" d="M168.568,260.247c0,7.609,0.208,14.9-0.057,22.175
				c-0.29,7.966,3.152,10.575,10.073,11.662c4.555,0.715,9.429,0.214,14.042-0.501c4.663-0.723,7.394-2.869,7.245-8.777
				c-0.199-7.902-0.035-15.813-0.021-23.721c0-0.183,0.081-0.364,0.172-0.75c7.311,0,14.669,0,22.348,0
				c0,9.167,0.003,18.296-0.013,27.424c0,0.263-0.236,0.517-0.292,0.788c-1.147,5.684-5.41,8.603-10.173,10.61
				c-5.949,2.506-12.286,3.683-18.792,3.821c-3.147,0.066-6.314,0.719-9.427,0.488c-8.486-0.626-17.082-0.703-25.17-3.965
				c-3.944-1.592-7.623-3.557-9.744-7.419c-0.826-1.504-1.502-3.309-1.536-4.991c-0.159-7.808-0.07-15.62-0.069-23.432
				c0-1.105,0-2.21,0-3.413C154.224,260.247,161.519,260.247,168.568,260.247z"/>
		</g>
		<g>
			<path fill-rule="evenodd" clip-rule="evenodd" fill="#FFFFFF" d="M298.724,333.055c6.153,0,12.505,0.024,18.857-0.016
				c1.744-0.011,2.055,0.929,2.042,2.397c-0.042,5.012-0.016,10.023-0.016,15.574c4.146-3.028,8.024-5.776,11.808-8.65
				c3.697-2.807,7.285-5.759,10.957-8.601c0.484-0.376,1.178-0.672,1.776-0.676c7.326-0.045,14.653-0.036,21.978-0.005
				c0.42,0.001,0.836,0.321,1.636,0.65c-8.607,6.163-16.947,12.134-25.438,18.213c9.084,7.622,18.187,15.259,27.835,23.355
				c-2.722,0-4.872,0-7.023,0c-3.566,0-7.181-0.367-10.689,0.082c-5.965,0.762-10.593-1.107-14.764-5.352
				c-4.619-4.7-9.648-8.998-14.525-13.442c-0.963-0.88-2.045-1.63-3.429-2.722c0,7.252,0,14.119,0,21.366c-7.04,0-13.823,0-21.005,0
				C298.724,361.546,298.724,347.471,298.724,333.055z"/>
		</g>
		<g>
			<path fill-rule="evenodd" clip-rule="evenodd" fill="#FFFFFF" d="M434.78,375.35c-19.231,0-38.092,0-57.354,0
				c0-13.804,0-27.882,0-42.177c0.431-0.025,1.264-0.116,2.097-0.117c17.353-0.008,34.705,0.046,52.057-0.058
				c2.574-0.017,3.488,0.773,3.233,3.296c-0.171,1.696-0.033,3.424-0.033,5.34c-11.97,0-23.695,0-35.65,0c0,2.735,0,5.271,0,8.198
				c0.964,0,1.984,0,3.005,0c8.966,0,17.931,0.05,26.896-0.036c2.067-0.019,3.068,0.518,2.887,2.756
				c-0.146,1.816-0.028,3.655-0.028,5.81c-10.938,0-21.769,0-32.792,0c0,2.858,0,5.396,0,8.256c3.092,0,6.146,0,9.202-0.001
				c7.808-0.002,15.618,0.081,23.424-0.057c2.443-0.044,3.315,0.755,3.09,3.15C434.65,371.42,434.78,373.157,434.78,375.35z"/>
		</g>
		<g>
			<path fill-rule="evenodd" clip-rule="evenodd" fill="#FFFFFF" d="M467.188,366.623c9.938,0,19.472,0.004,29.006-0.003
				c5.145-0.004,5.145-0.014,5.14,5.161c-0.001,1.048,0,2.095,0,3.492c-18.525,0-36.887,0-55.406,0c0-13.751,0-27.854,0-42.216
				c6.554,0,12.987,0.003,19.422-0.001c2.115-0.003,1.833,1.53,1.835,2.862c0.006,9.063,0.004,18.127,0.004,27.191
				C467.188,364.155,467.188,365.2,467.188,366.623z"/>
		</g>
		<g>
			<path fill-rule="evenodd" clip-rule="evenodd" fill="#FFFFFF" d="M523.767,321.493c4.115,0,8.303-0.463,12.32,0.164
				c2.652,0.415,5.038,2.442,7.593,3.64c0.623,0.292,1.602,0.458,2.146,0.17c1.911-1.012,3.705-2.243,5.539-3.398
				c0.239-0.15,0.453-0.487,0.68-0.489c4.376-0.029,8.751-0.021,13.126-0.021c0.062,0.249,0.123,0.499,0.185,0.748
				c-3.789,2.703-7.259,6.826-11.442,7.767c-5.894,1.325-12.559,1.313-18.434-0.074c-4.347-1.026-7.962-5.156-11.903-7.903
				C523.639,321.895,523.703,321.694,523.767,321.493z"/>
		</g>
	</g>
</g>
</svg>
